<svg xmlns="http://www.w3.org/2000/svg" viewBox="0 0 100 36.467">
  <defs>
    <style>
      .cls-1 {
        fill: #056aef;
      }

      .cls-2 {
        fill: #7645bd;
      }

      .cls-3 {
        fill: #6944bb;
      }
    </style>
  </defs>
  <g id="Asset_8" data-name="Asset 8" transform="translate(0.001 0)">
    <g id="Layer_1" data-name="Layer 1" transform="translate(-0.001 0)">
      <path id="Path_339" data-name="Path 339" class="cls-1" d="M10.608,59.492a1.668,1.668,0,0,1-1.451-.42,4.562,4.562,0,0,1-1-1.5,75.355,75.355,0,0,1-2.808-7.326c-.242.278-.614.587-.667.934A17.117,17.117,0,0,0,4.825,55c.078,1.259.414,3.436-.74,4.329a1.488,1.488,0,0,1-1.9-.278A3.245,3.245,0,0,1,1.447,57.1c-.336-3.347.22-6.764-.336-10.1A104.083,104.083,0,0,1,.029,35.442c-.078-1.432-.167-3.547,1.865-3.45a1.184,1.184,0,0,1,.573.153c1.457.892,1.259,4.231,1.39,5.644.25,2.88.411,5.763.626,8.643.492-.948,1.262-1.749,1.843-2.663a13.507,13.507,0,0,1,1.829-2.78c.664-.587,1.465-.556,2.185.373,1.081,1.332-1.273,3.892-2.046,4.971-1.006,1.39-.278,2.5.331,3.945.937,2.224,2.716,5.268,2.933,7.654a1.5,1.5,0,0,1-.7,1.473A1.01,1.01,0,0,1,10.608,59.492Z" transform="translate(0.001 -23.095)"/>
      <path id="Path_340" data-name="Path 340" class="cls-1" d="M254.822,59.422a1.668,1.668,0,0,1-1.448-.42,4.562,4.562,0,0,1-1-1.518,72.619,72.619,0,0,1-2.811-7.326c-.239.278-.612.587-.664.934a16.955,16.955,0,0,0,.142,3.823c.078,1.259.414,3.436-.74,4.329a1.488,1.488,0,0,1-1.9-.278,3.245,3.245,0,0,1-.737-1.946c-.339-3.336.228-6.772-.334-10.092a103.1,103.1,0,0,1-1.084-11.571c-.081-1.432-.167-3.547,1.863-3.464a1.168,1.168,0,0,1,.573.153c1.46.892,1.262,4.231,1.39,5.644.25,2.88.411,5.763.623,8.643.495-.948,1.265-1.749,1.846-2.663a13.507,13.507,0,0,1,1.829-2.78c.664-.587,1.465-.556,2.182.373,1.084,1.332-1.273,3.892-2.043,4.971-1.006,1.39-.278,2.5.331,3.945.937,2.224,2.716,5.268,2.933,7.654a1.5,1.5,0,0,1-.7,1.473A.985.985,0,0,1,254.822,59.422Z" transform="translate(-176.321 -23.025)"/>
      <path id="Path_341" data-name="Path 341" class="cls-1" d="M56.127,48.591a2.6,2.6,0,0,1-4.29-.575,2.507,2.507,0,0,1,2.013-3.778,2.735,2.735,0,0,1,2.716,2.591,2.244,2.244,0,0,1-.386,1.7Z" transform="translate(-37.195 -31.938)"/>
      <path id="Path_342" data-name="Path 342" class="cls-1" d="M56.346,89.41c-.94-.278-1.045-2.672-1.076-3.375-.083-2.035-.406-4.045-.584-6.072-.133-1.543-.662-4.27.556-5.5a1.49,1.49,0,0,1,2.438.575,4.306,4.306,0,0,1,.311,1.485c.278,3.511.309,6.975.309,10.5C58.283,88.357,58.111,89.947,56.346,89.41Z" transform="translate(-39.317 -53.453)"/>
      <path id="Path_343" data-name="Path 343" class="cls-1" d="M94.515,62.894c0-.723-.1-1.471-.106-1.977-.044-4.42.078-8.852.125-13.272.017-1.732.834-5.332-.142-6.806a2.013,2.013,0,0,0-2.085-.881c-2.555.623-1.512,5.952-1.39,7.731,0,.239.231,3.892.3,3.909-2.477-.587-5,1.437-5.969,3.892a9.34,9.34,0,0,0-.612,2.638c0,2.143.575,4.857,3.164,5.085A6.061,6.061,0,0,0,91.5,61.8c0,1.223-.214,3.664,1.776,3.239C94.276,64.823,94.507,63.884,94.515,62.894Zm-3.278-4a1.5,1.5,0,0,1-.653.717,2.708,2.708,0,0,1-1.7.473c-1.8-.239-1.418-2.866-.556-3.845a5.062,5.062,0,0,1,2.872-1.5c-.022,0,.164,2.224.172,2.4A4.19,4.19,0,0,1,91.237,58.893Z" transform="translate(-61.109 -28.821)"/>
      <path id="Path_344" data-name="Path 344" class="cls-2" d="M153.063,82.015c-.042-.278-.078-.556-.1-.787a38.919,38.919,0,0,1-.136-4.762c.07-1.61,0-3.2-1.182-4.448a4.717,4.717,0,0,0-5.221-.728A4.253,4.253,0,0,0,144.42,73.5a1.413,1.413,0,0,0,1.473,1.852c1.229,0,2.4-2.78,3.845-1.473.734.667.523,2.349.6,3.25-.039-.45-2.4-.578-2.686-.578-5.06,0-4.765,9.252.97,7.615.186-.053,1.946-.8,1.668-1.087a.153.153,0,0,1,.028.106c0,.784-.058,1.721.834,2.068a1.471,1.471,0,0,0,1.518-.342C153.358,84.237,153.2,83.025,153.063,82.015Zm-4.634.014a1.729,1.729,0,0,1-1.243-.278c-1.493-1.045-.378-2.969,1.184-2.969a1.638,1.638,0,0,1,1.732,1.49A1.872,1.872,0,0,1,148.429,82.029Z" transform="translate(-104.02 -51.12)"/>
      <path id="Path_345" data-name="Path 345" class="cls-2" d="M201.807,78.675c-1.485.278-.776-1.885-2.224-1.468a3.6,3.6,0,0,0-2.116,1.979,3.3,3.3,0,0,0-.025.892c.07,1.2.1,2.413.211,3.614.064.748.2,1.668-.47,2.224a1.717,1.717,0,0,1-2.321-.392,3.059,3.059,0,0,1-.4-1.17,13.042,13.042,0,0,1-.142-2.738l.042-4.979c0-.892-.25-2.191.242-3a1.651,1.651,0,0,1,3.1.409,1.668,1.668,0,0,1,.089.728c1.2-1.031,2.566-1.551,3.942-.339C202.7,75.3,203.711,78.316,201.807,78.675Z" transform="translate(-140.283 -52.5)"/>
      <path id="Path_346" data-name="Path 346" class="cls-1" d="M300.037,48.591a2.6,2.6,0,0,1-4.287-.575,2.508,2.508,0,0,1,2.01-3.778,2.734,2.734,0,0,1,2.716,2.591,2.224,2.224,0,0,1-.386,1.7Z" transform="translate(-213.298 -31.938)"/>
      <path id="Path_347" data-name="Path 347" class="cls-1" d="M300.238,89.41c-.94-.278-1.045-2.672-1.073-3.375-.086-2.035-.409-4.045-.584-6.072-.136-1.543-.664-4.27.556-5.5a1.49,1.49,0,0,1,2.438.575,4.306,4.306,0,0,1,.309,1.485c.278,3.511.311,6.975.311,10.5C302.175,88.357,302,89.947,300.238,89.41Z" transform="translate(-215.406 -53.453)"/>
      <path id="Path_348" data-name="Path 348" class="cls-1" d="M333.058,62.93a1.91,1.91,0,0,1-.556.195,22.785,22.785,0,0,0-2.641.373c.228,2.266-.056,4.565.253,6.847a1.3,1.3,0,0,0,.381.9c.734.556,1.187-1.012,1.576-1.3a1.043,1.043,0,0,1,1.168-.047,1.24,1.24,0,0,1,.406.556,2.5,2.5,0,0,1,.017,1.668,3.964,3.964,0,0,1-2.041,2.346,3.327,3.327,0,0,1-3.272-.5c-1.1-.965-1-2.424-1.043-3.745-.053-1.451-.128-2.9-.111-4.354a20.514,20.514,0,0,1-.039-2.143,10.714,10.714,0,0,1-1.768.039,1.824,1.824,0,0,1-1.41-2.5,1.86,1.86,0,0,1,1.246-1.031c.158-.039,2.027-.025,2.027-.025.028-.9-.025-1.785-.053-2.663a21.783,21.783,0,0,1-.028-2.522c.092-1.1,1-2.4,2.26-1.84a1.884,1.884,0,0,1,.948,1.918c-.089.965-.247,1.913-.264,2.88,0,.145,0,2.01-.039,2.016,1-.142,1.966-.628,2.9.042a1.985,1.985,0,0,1,.831,1.618,1.548,1.548,0,0,1-.336.973A1.391,1.391,0,0,1,333.058,62.93Z" transform="translate(-233.809 -38.296)"/>
      <path id="Path_349" data-name="Path 349" class="cls-3" d="M154.752,9.238a7.734,7.734,0,0,1-2.538-.678l-3.659-1.487L143.684,5.1a.389.389,0,0,1,0-.723l4.668-1.893,3.584-1.457A10.321,10.321,0,0,1,154.624.011a3.727,3.727,0,0,1,1.854.473L160.3,2.032l5.777,2.341a.389.389,0,0,1,0,.723l-5.346,2.168L156.94,8.81A5.032,5.032,0,0,1,154.752,9.238Z" transform="translate(-103.562 0)"/>
      <path id="Path_350" data-name="Path 350" class="cls-3" d="M172.362,33.356v4.7a.92.92,0,0,1-.906.934H157.914a.92.92,0,0,1-.915-.934v-4.7a.92.92,0,0,1,1.3-.834l6.013,2.683a.929.929,0,0,0,.751,0l6.013-2.683a.92.92,0,0,1,1.29.834Z" transform="translate(-113.352 -23.423)"/>
    </g>
  </g>
</svg>
